<?xml version="1.0" encoding="UTF-8" standalone="no"?><!-- Generator: Gravit.io --><svg xmlns="http://www.w3.org/2000/svg" xmlns:xlink="http://www.w3.org/1999/xlink" style="isolation:isolate" viewBox="0 0 240 64.301" width="240pt" height="64.301pt"><defs><clipPath id="_clipPath_9YcWUwpztGlZpwN630B3qcpCudTRJnlU"><rect width="240" height="64.301"/></clipPath></defs><g clip-path="url(#_clipPath_9YcWUwpztGlZpwN630B3qcpCudTRJnlU)"><rect width="240" height="64.301" style="fill:rgb(0,0,0)" fill-opacity="0"/><g><g><path d=" M 64.286 64.286 L 64.286 0 L 0 0 L 0 64.286 L 5.473 64.286 L 64.286 64.286 L 64.286 64.286 Z " fill="rgb(251,213,79)"/><rect x="68.565" y="0" width="171.435" height="64.286" transform="matrix(1,0,0,1,0,0)" fill="rgb(0,60,115)"/><path d=" M 88.008 39.551 C 88.979 40.716 90.171 41.677 91.516 42.379 C 93.666 43.525 96.064 44.128 98.501 44.133 C 102.099 44.133 105.183 42.424 105.183 39.914 C 105.183 37.027 101.54 36.573 98.864 36.21 C 96.853 35.953 94.857 35.696 92.816 35.288 C 90.609 34.819 83.049 33.232 83.049 25.415 C 83.049 16.056 91.38 13.32 97.654 13.32 C 106.03 13.32 110.551 17.372 113.695 20.199 L 107.088 24.992 C 106.017 23.817 104.785 22.799 103.43 21.968 C 101.615 20.969 99.588 20.419 97.518 20.365 C 93.92 20.365 92.12 22.422 92.12 24.175 C 92.12 26.942 95.144 27.366 96.747 27.562 C 100.498 27.985 104.209 28.708 107.844 29.724 C 111.697 30.939 114.265 34.577 114.119 38.614 C 114.092 41.441 113.075 44.169 111.246 46.325 C 107.95 50.135 102.704 51.208 97.639 51.208 C 87.403 51.208 83.336 46.476 81.084 43.86 L 88.008 39.551 Z " fill="rgb(251,213,79)"/><path d=" M 145.491 33.126 C 145.234 40.685 140.607 43.815 136.283 43.815 C 131.959 43.815 127.212 40.625 127.212 31.992 C 127.212 25.415 130.704 20.577 136.283 20.577 C 138.685 20.566 140.988 21.532 142.663 23.253 C 144.808 26.075 145.816 29.597 145.491 33.126 L 145.491 33.126 Z  M 147.698 47.67 C 152.113 43.895 154.631 38.36 154.577 32.551 C 154.577 30.087 153.867 18.007 142.754 14.151 C 140.623 13.424 138.384 13.061 136.132 13.078 C 124.46 13.078 118.246 22.376 118.246 32.188 C 118.246 42.681 124.763 51.526 136.283 51.526 C 140.425 51.636 144.471 50.269 147.698 47.67 Z " fill="rgb(251,213,79)"/><path d=" M 159.204 14.151 L 168.109 14.151 L 175.971 27.517 C 178.843 32.612 179.72 34.26 181.414 37.45 L 181.005 14.151 L 189.699 14.151 L 189.699 50.437 L 180.794 50.437 L 174.02 38.977 C 171.698 35.3 169.568 31.505 167.64 27.607 L 167.897 50.437 L 159.204 50.437 L 159.204 14.151 Z " fill="rgb(251,213,79)"/><path d=" M 201.703 39.551 C 202.665 40.72 203.853 41.681 205.196 42.379 C 207.351 43.526 209.755 44.128 212.196 44.133 C 215.794 44.133 218.879 42.424 218.879 39.914 C 218.879 37.027 215.22 36.573 212.544 36.21 C 210.548 35.953 208.537 35.696 206.587 35.288 C 204.379 34.819 196.82 33.232 196.82 25.415 C 196.82 16.056 205.151 13.32 211.425 13.32 C 219.801 13.32 224.322 17.372 227.451 20.199 L 220.784 24.992 C 219.73 23.852 218.519 22.869 217.185 22.074 C 215.371 21.075 213.344 20.525 211.274 20.471 C 207.675 20.471 205.876 22.527 205.876 24.281 C 205.876 27.048 208.9 27.471 210.503 27.668 C 214.259 28.091 217.975 28.814 221.615 29.83 C 225.449 31.071 228.005 34.692 227.89 38.72 C 227.858 41.549 226.837 44.277 225.002 46.431 C 221.721 50.241 216.475 51.314 211.395 51.314 C 201.174 51.314 197.107 46.582 194.839 43.966 L 201.703 39.551 Z " fill="rgb(251,213,79)"/><path d=" M 20.275 8.361 C 20.269 6.169 21.585 4.19 23.609 3.348 C 25.633 2.506 27.965 2.968 29.515 4.518 C 31.065 6.068 31.527 8.4 30.685 10.424 C 29.843 12.448 27.864 13.764 25.672 13.758 C 22.691 13.758 20.275 11.342 20.275 8.361 Z " fill-rule="evenodd" fill="rgb(0,60,115)"/><path d=" M 12.715 64.301 L 22.285 64.301 L 26.579 48.653 L 35.303 64.301 L 44.994 64.301 L 31.75 40.353 L 31.75 40.353 L 31.75 26.746 L 43.059 42.847 L 45.176 41.577 L 61.338 64.256 L 64.226 64.256 L 47.292 40.066 L 30.147 15.875 L 19.73 14.726 L 11.536 26.821 L 19.413 42.197 L 12.715 64.301 Z  M 17.251 27.169 L 20.713 22.316 L 20.713 33.655 L 17.251 27.169 Z " fill-rule="evenodd" fill="rgb(0,60,115)"/></g></g></g></svg>